<svg xmlns="http://www.w3.org/2000/svg" viewBox="0 0 64 64">
  <defs>
    <radialGradient id="bg" cx="18%" cy="12%" r="90%">
      <stop offset="0" stop-color="#1f2c5c"/>
      <stop offset="0.55" stop-color="#0f172a"/>
      <stop offset="1" stop-color="#050b19"/>
    </radialGradient>
    <linearGradient id="sunrise" x1="22" y1="20" x2="46" y2="48" gradientUnits="userSpaceOnUse">
      <stop offset="0" stop-color="#fde68a"/>
      <stop offset="0.5" stop-color="#fbbf24"/>
      <stop offset="1" stop-color="#f97316"/>
    </linearGradient>
    <linearGradient id="cup" x1="18" y1="28" x2="44" y2="46" gradientUnits="userSpaceOnUse">
      <stop offset="0" stop-color="#f3f4f6"/>
      <stop offset="1" stop-color="#d1d5db"/>
    </linearGradient>
    <linearGradient id="steam" x1="0" y1="0" x2="0" y2="1">
      <stop offset="0" stop-color="#fbbf24" stop-opacity="0.9"/>
      <stop offset="1" stop-color="#fde68a" stop-opacity="0.1"/>
    </linearGradient>
  </defs>
  <rect width="64" height="64" rx="16" fill="url(#bg)"/>
  <circle cx="40" cy="24" r="16" fill="url(#sunrise)" opacity="0.85"/>
  <path d="M21 26h18c4.4 0 8 3.6 8 8s-3.6 8-8 8h-2.6c-1.7 3.5-5.3 6-9.4 6-3.8 0-7-2-8.8-4.9C15.3 40.4 13 37.2 13 33.5V31c0-2.8 2.2-5 5-5z" fill="url(#cup)"/>
  <path d="M39.7 30.5h2.3c2 0 3.7 1.7 3.7 3.7s-1.7 3.7-3.7 3.7h-1.8" fill="none" stroke="#f59e0b" stroke-width="3" stroke-linecap="round"/>
  <path d="M20 43h18" stroke="#94a3b8" stroke-width="3" stroke-linecap="round" opacity="0.6"/>
  <path d="M24.5 20c-.5 2 1.4 3.2 1.4 5.2 0 1.2-.6 2.3-1.4 3.3M30 18.5c-.5 2 1.4 3.2 1.4 5.2 0 1.2-.6 2.3-1.4 3.3M35.5 20c-.5 2 1.4 3.2 1.4 5.2 0 1.2-.6 2.3-1.4 3.3" fill="none" stroke="url(#steam)" stroke-width="2.4" stroke-linecap="round"/>
  <circle cx="20" cy="50" r="6" fill="#0ea5e9" opacity="0.35"/>
  <circle cx="32" cy="52" r="4" fill="#fbbf24" opacity="0.35"/>
</svg>
